<?xml version="1.0" encoding="UTF-8" standalone="no"?>
<svg
   version="1.1"
   width="130"
   height="80"
   id="svg8"
   sodipodi:docname="crwm.svg"
   inkscape:version="1.1.1 (3bf5ae0d25, 2021-09-20)"
   xmlns:inkscape="http://www.inkscape.org/namespaces/inkscape"
   xmlns:sodipodi="http://sodipodi.sourceforge.net/DTD/sodipodi-0.dtd"
   xmlns="http://www.w3.org/2000/svg"
   xmlns:svg="http://www.w3.org/2000/svg">
  <defs
     id="defs12" />
  <sodipodi:namedview
     id="namedview10"
     pagecolor="#ffffff"
     bordercolor="#666666"
     borderopacity="1.0"
     inkscape:pageshadow="2"
     inkscape:pageopacity="0.0"
     inkscape:pagecheckerboard="0"
     showgrid="true"
     inkscape:snap-grids="true"
     inkscape:snap-to-guides="false"
     inkscape:snap-smooth-nodes="true"
     inkscape:snap-intersection-paths="false"
     inkscape:object-paths="false"
     inkscape:object-nodes="true"
     inkscape:zoom="3.865884"
     inkscape:cx="83.163385"
     inkscape:cy="50.699918"
     inkscape:window-width="1918"
     inkscape:window-height="1198"
     inkscape:window-x="0"
     inkscape:window-y="0"
     inkscape:window-maximized="1"
     inkscape:current-layer="g6"
     fit-margin-top="0"
     fit-margin-left="0"
     fit-margin-right="0"
     fit-margin-bottom="0">
    <inkscape:grid
       type="xygrid"
       id="grid22420"
       originx="0"
       originy="0" />
  </sodipodi:namedview>
  <g
     stroke-linejoin="round"
     stroke-linecap="round"
     stroke-width="10"
     id="g6">
    <path
       stroke="#ffffff"
       fill="#ffffff"
       d="M 5,5 V 5 75 H 125 V 5 Z"
       id="path2"
       sodipodi:nodetypes="cccccc" />
    <path
       stroke="#000000"
       fill="none"
       d="M 40,70 V 10 20 c 0,0 0,-10 10,-10 10,0 10,10 10,10 M 80,10 v 15 5 -10 c 0,0 0,-10 10,-10 10,0 10,10 10,10 V 40 20 c 0,0 0,-10 10,-10 10,0 10,10 10,10 V 50 M 60,35 v 25 c 0,0 0,10 10,10 10,0 10,-10 10,-10 V 45 60 c 0,0 0,10 10,10 10,0 10,-10 10,-10 v -5 m 20,15 v 0 M 25,10 C 10,10 10,25 10,25 v 30 c 0,0 0,15 15,15"
       id="path4"
       sodipodi:nodetypes="ccccccsccscssscsssccssscssscccc" />
  </g>
</svg>
